# xmcd
#
# Track frame offsets:
#	150
#	30615
#	48698
#	72634
#	90320
#	116669
#	136755
#	152197
#	168606
#	185579
#	206450
#	255159
#
# Disc length: 3546 seconds
#
# Revision: 3
# Processed by: cddbd v1.5.2PL0 Copyright (c) Steve Scherf et al.
# Submitted via: EasyCDDAExtractor 15.3.0.1
#
DISCID=a40dd80c
DTITLE=Britney Spears - B In The Mix - The Remixes
DYEAR=2005
DGENRE=Pop
TTITLE0=Toxic (Peter Rauhofer Reconstruction Mix) (Edit)
TTITLE1=Me Against The Music (Featuring Madonna) (Justice Remix)
TTITLE2=Touch Of My Hand (Bill Hamel Remix)
TTITLE3=Breathe On Me (Jacques Lu Cont's Thin White Duke Mix)
TTITLE4=I'm A Slave 4 U (Dave Aude Slave Driver Mix)
TTITLE5=And Then We Kiss (Junkie XL Remix)
TTITLE6=Everytime (Valentin Remix)
TTITLE7=Early Mornin' (Jason Nevins Remix)
TTITLE8=Someday (I Will Understand) (Hi-Bias Signature Radio Remix)
TTITLE9=Baby One More Time (Davidson Ospina 2005 Remix)
TTITLE10=Don't Let Me Be The Last To Know (Hex Hector Club Mix) (Edit)
TTITLE11=Data Track
EXTD=
EXTT0=
EXTT1=
EXTT2=
EXTT3=
EXTT4=
EXTT5=
EXTT6=
EXTT7=
EXTT8=
EXTT9=
EXTT10=
EXTT11=
PLAYORDER=
